<svg width="402" height="273" viewBox="0 0 402 273" fill="none" xmlns="http://www.w3.org/2000/svg">
<path d="M69.1253 209.663C69.1253 207.539 69.5135 205.525 70.2898 203.621C71.0808 201.716 72.1941 200.046 73.6297 198.611C75.0652 197.161 76.7937 196.018 78.8152 195.183C80.8513 194.333 83.1145 193.909 85.6048 193.909C88.1389 193.909 90.4241 194.333 92.4602 195.183C94.4964 196.018 96.2249 197.153 97.6458 198.589C99.0813 200.024 100.18 201.694 100.942 203.599C101.718 205.503 102.106 207.524 102.106 209.663C102.106 211.729 101.725 213.713 100.964 215.618C100.217 217.507 99.1326 219.177 97.7117 220.627C96.2908 222.078 94.5476 223.235 92.4822 224.099C90.4314 224.963 88.1096 225.396 85.5169 225.396C83.847 225.396 82.2796 225.205 80.8147 224.824C79.3499 224.429 78.0096 223.879 76.7937 223.176C75.5926 222.473 74.5159 221.638 73.5638 220.671C72.6116 219.69 71.8059 218.621 71.1468 217.463C70.4876 216.292 69.9822 215.046 69.6306 213.728C69.2937 212.41 69.1253 211.055 69.1253 209.663ZM73.6736 209.663C73.6736 211.333 73.9739 212.886 74.5745 214.321C75.1751 215.742 76.0027 216.98 77.0574 218.035C78.1267 219.075 79.3865 219.888 80.8367 220.474C82.3015 221.06 83.8909 221.353 85.6048 221.353C87.3186 221.353 88.908 221.06 90.3728 220.474C91.8377 219.888 93.0974 219.075 94.1521 218.035C95.2215 216.98 96.0564 215.742 96.657 214.321C97.2576 212.886 97.5579 211.333 97.5579 209.663C97.5579 207.964 97.2576 206.404 96.657 204.983C96.0564 203.547 95.2215 202.31 94.1521 201.27C93.0974 200.229 91.8377 199.417 90.3728 198.831C88.908 198.245 87.3186 197.952 85.6048 197.952C83.8909 197.952 82.3015 198.245 80.8367 198.831C79.3865 199.417 78.1267 200.229 77.0574 201.27C76.0027 202.31 75.1751 203.547 74.5745 204.983C73.9739 206.404 73.6736 207.964 73.6736 209.663ZM147.431 194.128L161.164 225H156.66L145.827 200.105L135.654 225H131.15L144.333 194.128H147.431ZM213.147 202.456L193.658 225.396H191.548V194.304H195.943V217.661L215.388 194.304H217.542V225H213.147V202.456ZM279.896 194.304V225H275.479V201.116H275.391L265.943 212.981H265.218L255.77 201.116H255.682V225H251.287V194.304H255.418L265.592 206.917L275.809 194.304H279.896ZM339.525 194.304V225H335.131V198.259H317.926V225H313.532V194.304H339.525Z" fill="white"/>
<path d="M70.2898 203.621L69.5122 203.298L69.5101 203.303L70.2898 203.621ZM73.6297 198.611L74.2251 199.206L74.2281 199.203L73.6297 198.611ZM78.8152 195.183L79.1367 195.961L79.1395 195.96L78.8152 195.183ZM92.4602 195.183L92.136 195.96L92.1408 195.962L92.4602 195.183ZM97.6458 198.589L97.0473 199.181L97.0504 199.184L97.6458 198.589ZM100.942 203.599L100.16 203.911L100.162 203.917L100.942 203.599ZM100.964 215.618L100.182 215.305L100.181 215.308L100.964 215.618ZM92.4822 224.099L92.1572 223.322L92.1552 223.323L92.4822 224.099ZM80.8147 224.824L80.5952 225.637L80.6028 225.639L80.8147 224.824ZM76.7937 223.176L76.3683 223.903L76.3722 223.905L76.7937 223.176ZM73.5638 220.671L72.9594 221.258L72.9638 221.262L73.5638 220.671ZM71.1468 217.463L70.4129 217.876L70.4151 217.88L71.1468 217.463ZM69.6306 213.728L68.8148 213.937L68.817 213.945L69.6306 213.728ZM74.5745 214.321L73.7977 214.646L73.7989 214.649L74.5745 214.321ZM77.0574 218.035L76.4619 218.63L76.4703 218.638L77.0574 218.035ZM80.8367 220.474L80.5213 221.254L80.524 221.255L80.8367 220.474ZM94.1521 218.035L94.7434 218.634L94.1521 218.035ZM96.657 214.321L97.4326 214.649L97.4338 214.646L96.657 214.321ZM96.657 204.983L95.8802 205.308L95.8814 205.311L96.657 204.983ZM94.1521 201.27L93.5609 201.869L93.5651 201.873L94.1521 201.27ZM80.8367 198.831L80.524 198.049L80.5213 198.05L80.8367 198.831ZM77.0574 201.27L76.4703 200.666L76.4662 200.67L77.0574 201.27ZM74.5745 204.983L75.3501 205.311L75.3513 205.308L74.5745 204.983ZM69.9673 209.663C69.9673 207.644 70.3357 205.739 71.0695 203.938L69.5101 203.303C68.6912 205.311 68.2832 207.434 68.2832 209.663H69.9673ZM71.0674 203.944C71.8168 202.14 72.8688 200.563 74.2251 199.206L73.0343 198.015C71.5195 199.53 70.3449 201.293 69.5122 203.298L71.0674 203.944ZM74.2281 199.203C75.5791 197.838 77.2114 196.757 79.1367 195.961L78.4938 194.405C76.376 195.28 74.5513 196.483 73.0312 198.018L74.2281 199.203ZM79.1395 195.96C81.0605 195.159 83.2116 194.751 85.6048 194.751V193.067C83.0175 193.067 80.6422 193.508 78.491 194.406L79.1395 195.96ZM85.6048 194.751C88.044 194.751 90.2167 195.159 92.136 195.96L92.7845 194.406C90.6315 193.508 88.2339 193.067 85.6048 193.067V194.751ZM92.1408 195.962C94.0817 196.758 95.7128 197.833 97.0473 199.181L98.2442 197.997C96.7369 196.474 94.911 195.278 92.7797 194.404L92.1408 195.962ZM97.0504 199.184C98.4044 200.538 99.4401 202.112 100.16 203.911L101.723 203.286C100.92 201.277 99.7582 199.51 98.2412 197.993L97.0504 199.184ZM100.162 203.917C100.896 205.716 101.264 207.629 101.264 209.663H102.948C102.948 207.42 102.541 205.29 101.721 203.281L100.162 203.917ZM101.264 209.663C101.264 211.622 100.903 213.501 100.182 215.305L101.745 215.93C102.547 213.926 102.948 211.835 102.948 209.663H101.264ZM100.181 215.308C99.4748 217.093 98.4525 218.668 97.1103 220.038L98.3131 221.217C99.8127 219.686 100.958 217.921 101.747 215.927L100.181 215.308ZM97.1103 220.038C95.7758 221.4 94.1296 222.497 92.1572 223.322L92.8072 224.876C94.9657 223.973 96.8058 222.755 98.3131 221.217L97.1103 220.038ZM92.1552 223.323C90.2236 224.137 88.0157 224.553 85.5169 224.553V226.238C88.2036 226.238 90.6393 225.79 92.8092 224.875L92.1552 223.323ZM85.5169 224.553C83.9112 224.553 82.4156 224.37 81.0266 224.009L80.6028 225.639C82.1436 226.04 83.7827 226.238 85.5169 226.238V224.553ZM81.0342 224.011C79.6345 223.633 78.3628 223.111 77.2153 222.447L76.3722 223.905C77.6563 224.648 79.0653 225.224 80.5952 225.637L81.0342 224.011ZM77.2191 222.45C76.0802 221.783 75.0625 220.993 74.1637 220.081L72.9638 221.262C73.9693 222.283 75.1049 223.163 76.3684 223.903L77.2191 222.45ZM74.1681 220.085C73.264 219.153 72.5015 218.141 71.8784 217.047L70.4151 217.88C71.1103 219.101 71.9592 220.227 72.9594 221.258L74.1681 220.085ZM71.8807 217.051C71.2567 215.941 70.7778 214.762 70.4442 213.511L68.817 213.945C69.1866 215.331 69.7185 216.642 70.4129 217.876L71.8807 217.051ZM70.4465 213.52C70.1273 212.271 69.9673 210.986 69.9673 209.663H68.2832C68.2832 211.123 68.4601 212.548 68.8148 213.937L70.4465 213.52ZM72.8316 209.663C72.8316 211.436 73.151 213.1 73.7977 214.646L75.3513 213.996C74.7968 212.671 74.5156 211.23 74.5156 209.663H72.8316ZM73.7989 214.649C74.4403 216.166 75.3279 217.496 76.462 218.63L77.6528 217.439C76.6775 216.464 75.9099 215.318 75.3501 213.993L73.7989 214.649ZM76.4703 218.638C77.6216 219.758 78.9749 220.63 80.5213 221.254L81.1521 219.693C79.7981 219.146 78.6318 218.391 77.6445 217.431L76.4703 218.638ZM80.524 221.255C82.0966 221.884 83.7931 222.195 85.6048 222.195V220.511C83.9887 220.511 82.5065 220.235 81.1494 219.692L80.524 221.255ZM85.6048 222.195C87.4165 222.195 89.113 221.884 90.6856 221.255L90.0601 219.692C88.703 220.235 87.2208 220.511 85.6048 220.511V222.195ZM90.6856 221.255C92.2476 220.631 93.6038 219.758 94.7434 218.634L93.5609 217.435C92.5911 218.391 91.4278 219.145 90.0601 219.692L90.6856 221.255ZM94.7434 218.634C95.8936 217.5 96.7902 216.169 97.4326 214.649L95.8814 213.993C95.3227 215.315 94.5494 216.46 93.5608 217.435L94.7434 218.634ZM97.4338 214.646C98.0805 213.1 98.3999 211.436 98.3999 209.663H96.7159C96.7159 211.23 96.4347 212.671 95.8802 213.996L97.4338 214.646ZM98.3999 209.663C98.3999 207.863 98.0813 206.19 97.4326 204.655L95.8814 205.311C96.4339 206.618 96.7159 208.065 96.7159 209.663H98.3999ZM97.4338 204.658C96.7913 203.122 95.8934 201.789 94.7392 200.666L93.5651 201.873C94.5495 202.831 95.3215 203.972 95.8802 205.308L97.4338 204.658ZM94.7434 200.67C93.6038 199.546 92.2476 198.674 90.6856 198.049L90.0601 199.612C91.4278 200.159 92.5911 200.913 93.5609 201.869L94.7434 200.67ZM90.6856 198.049C89.113 197.42 87.4165 197.11 85.6048 197.11V198.794C87.2208 198.794 88.703 199.07 90.0601 199.612L90.6856 198.049ZM85.6048 197.11C83.7931 197.11 82.0966 197.42 80.524 198.049L81.1494 199.612C82.5065 199.07 83.9887 198.794 85.6048 198.794V197.11ZM80.5213 198.05C78.9749 198.675 77.6216 199.546 76.4703 200.666L77.6445 201.873C78.6318 200.913 79.7981 200.158 81.1521 199.611L80.5213 198.05ZM76.4662 200.67C75.3281 201.792 74.4391 203.125 73.7977 204.658L75.3513 205.308C75.911 203.97 76.6774 202.827 77.6486 201.869L76.4662 200.67ZM73.7989 204.655C73.1502 206.19 72.8316 207.863 72.8316 209.663H74.5156C74.5156 208.065 74.7976 206.618 75.3501 205.311L73.7989 204.655ZM147.431 194.128L148.201 193.786L147.978 193.286H147.431V194.128ZM161.164 225V225.842H162.46L161.934 224.658L161.164 225ZM156.66 225L155.888 225.336L156.108 225.842H156.66V225ZM145.827 200.105L146.6 199.769L145.803 197.939L145.048 199.786L145.827 200.105ZM135.654 225V225.842H136.22L136.434 225.319L135.654 225ZM131.15 225L130.375 224.669L129.875 225.842H131.15V225ZM144.333 194.128V193.286H143.777L143.559 193.798L144.333 194.128ZM146.662 194.471L160.395 225.342L161.934 224.658L148.201 193.786L146.662 194.471ZM161.164 224.158H156.66V225.842H161.164V224.158ZM157.432 224.664L146.6 199.769L145.055 200.441L155.888 225.336L157.432 224.664ZM145.048 199.786L134.875 224.681L136.434 225.319L146.607 200.424L145.048 199.786ZM135.654 224.158H131.15V225.842H135.654V224.158ZM131.924 225.331L145.108 194.459L143.559 193.798L130.375 224.669L131.924 225.331ZM144.333 194.97H147.431V193.286H144.333V194.97ZM213.147 202.456H213.989V200.165L212.506 201.911L213.147 202.456ZM193.658 225.396V226.238H194.047L194.299 225.941L193.658 225.396ZM191.548 225.396H190.706V226.238H191.548V225.396ZM191.548 194.304V193.462H190.706V194.304H191.548ZM195.943 194.304H196.785V193.462H195.943V194.304ZM195.943 217.661H195.101V219.989L196.59 218.2L195.943 217.661ZM215.388 194.304V193.462H214.994L214.741 193.765L215.388 194.304ZM217.542 194.304H218.384V193.462H217.542V194.304ZM217.542 225V225.842H218.384V225H217.542ZM213.147 225H212.305V225.842H213.147V225ZM212.506 201.911L193.016 224.85L194.299 225.941L213.789 203.001L212.506 201.911ZM193.658 224.553H191.548V226.238H193.658V224.553ZM192.39 225.396V194.304H190.706V225.396H192.39ZM191.548 195.146H195.943V193.462H191.548V195.146ZM195.101 194.304V217.661H196.785V194.304H195.101ZM196.59 218.2L216.036 194.843L214.741 193.765L195.296 217.122L196.59 218.2ZM215.388 195.146H217.542V193.462H215.388V195.146ZM216.7 194.304V225H218.384V194.304H216.7ZM217.542 224.158H213.147V225.842H217.542V224.158ZM213.989 225V202.456H212.305V225H213.989ZM279.896 194.304H280.738V193.462H279.896V194.304ZM279.896 225V225.842H280.738V225H279.896ZM275.479 225H274.637V225.842H275.479V225ZM275.479 201.116H276.321V200.274H275.479V201.116ZM275.391 201.116V200.274H274.986L274.733 200.591L275.391 201.116ZM265.943 212.981V213.823H266.349L266.602 213.505L265.943 212.981ZM265.218 212.981L264.559 213.505L264.812 213.823H265.218V212.981ZM255.77 201.116L256.429 200.591L256.176 200.274H255.77V201.116ZM255.682 201.116V200.274H254.84V201.116H255.682ZM255.682 225V225.842H256.524V225H255.682ZM251.287 225H250.445V225.842H251.287V225ZM251.287 194.304V193.462H250.445V194.304H251.287ZM255.418 194.304L256.074 193.776L255.821 193.462H255.418V194.304ZM265.592 206.917L264.936 207.445L265.59 208.256L266.246 207.447L265.592 206.917ZM275.809 194.304V193.462H275.407L275.155 193.774L275.809 194.304ZM279.054 194.304V225H280.738V194.304H279.054ZM279.896 224.158H275.479V225.842H279.896V224.158ZM276.321 225V201.116H274.637V225H276.321ZM275.479 200.274H275.391V201.958H275.479V200.274ZM274.733 200.591L265.284 212.456L266.602 213.505L276.05 201.64L274.733 200.591ZM265.943 212.139H265.218V213.823H265.943V212.139ZM265.877 212.456L256.429 200.591L255.111 201.64L264.559 213.505L265.877 212.456ZM255.77 200.274H255.682V201.958H255.77V200.274ZM254.84 201.116V225H256.524V201.116H254.84ZM255.682 224.158H251.287V225.842H255.682V224.158ZM252.129 225V194.304H250.445V225H252.129ZM251.287 195.146H255.418V193.462H251.287V195.146ZM254.763 194.833L264.936 207.445L266.247 206.388L256.074 193.776L254.763 194.833ZM266.246 207.447L276.463 194.834L275.155 193.774L264.937 206.386L266.246 207.447ZM275.809 195.146H279.896V193.462H275.809V195.146ZM339.525 194.304H340.367V193.462H339.525V194.304ZM339.525 225V225.842H340.367V225H339.525ZM335.131 225H334.289V225.842H335.131V225ZM335.131 198.259H335.973V197.417H335.131V198.259ZM317.926 198.259V197.417H317.084V198.259H317.926ZM317.926 225V225.842H318.768V225H317.926ZM313.532 225H312.689V225.842H313.532V225ZM313.532 194.304V193.462H312.689V194.304H313.532ZM338.683 194.304V225H340.367V194.304H338.683ZM339.525 224.158H335.131V225.842H339.525V224.158ZM335.973 225V198.259H334.289V225H335.973ZM335.131 197.417H317.926V199.101H335.131V197.417ZM317.084 198.259V225H318.768V198.259H317.084ZM317.926 224.158H313.532V225.842H317.926V224.158ZM314.374 225V194.304H312.689V225H314.374ZM313.532 195.146H339.525V193.462H313.532V195.146Z" fill="black"/>
<path fill-rule="evenodd" clip-rule="evenodd" d="M244.78 172.59H286.71L285.56 171C285.45 170.83 274.41 155.61 268.66 148L288.23 123.65C300.96 140.4 324.38 170.87 324.62 171.18L324.92 171.57H371.55L370.32 169.96C369.92 169.44 330.26 117.61 310.48 91.61L309.71 90.61L288.33 117.25L222.16 30L170.13 98.52L137.07 55.52L58.81 155.59L49.72 144.06L30 169.81L32.91 172.11L49.84 150.5L56.16 158.86C53.7233 162.093 49.9507 167.029 48.3914 169.068C47.9542 169.64 47.691 169.985 47.68 170L46.44 171.59H71L69.71 169.96C69.6956 169.937 69.2373 169.34 68.5204 168.406C66.7483 166.096 63.3959 161.728 61.26 158.88L137.06 61.88L167.62 101.83L163.4 107.3L156.4 98.83L155.64 99.83C139.363 120.843 108.122 161.614 101.987 169.62C101.334 170.473 100.966 170.954 100.93 171L99.7 172.59H145.63L163.69 148.59H189.39C191.29 151.02 201.69 164.33 207.07 171.33L207.67 172.11L210.67 169.91L210.07 169.1C205.76 163.32 197.51 152.59 194.37 148.59H207.75L185.41 119.26L213 82.38L263.78 148.59L244.78 172.59ZM363.49 167.59H326.65L290.75 120.22L309.62 96.66L363.49 167.59ZM279 167.59H252.65L266.14 150.81L279 167.59ZM143.64 167.59H107.85L156.34 105L160.62 110.69L132.8 147.59H158.56L143.64 167.59ZM63.17 167.59H54.3L58.74 161.79L63.17 167.59ZM266.14 144.83L213 75.6L183.07 115.52L172.6 101.83L222.16 36.46L285.74 120.41L266.14 144.83ZM199.77 143.6H191.08L178.84 127.56L183.05 121.76L185.15 124.48C185.754 125.262 186.354 126.035 186.949 126.801C188.462 128.751 189.944 130.661 191.38 132.57L197.6 140.74L199.77 143.6ZM186.04 143.6H166.85L176.33 130.85L186.04 143.6ZM161.82 143.6H140.68L163.37 113.72L173.82 127.6L161.82 143.6ZM176.37 124.47L165.89 110.87L170.12 105.1L180.6 118.8L176.37 124.47Z" fill="url(#paint0_linear)"/>
<defs>
<linearGradient id="paint0_linear" x1="34.8487" y1="185.642" x2="344.022" y2="86.0507" gradientUnits="userSpaceOnUse">
<stop offset="0.04" stop-color="#0051BD"/>
<stop offset="0.484375" stop-color="white"/>
<stop offset="1" stop-color="#00347B"/>
</linearGradient>
</defs>
</svg>
